<?xml version="1.0" encoding="UTF-8" standalone="no"?>
<svg
   xmlns:dc="http://purl.org/dc/elements/1.1/"
   xmlns:cc="http://creativecommons.org/ns#"
   xmlns:rdf="http://www.w3.org/1999/02/22-rdf-syntax-ns#"
   xmlns:svg="http://www.w3.org/2000/svg"
   xmlns="http://www.w3.org/2000/svg"
   xmlns:sodipodi="http://sodipodi.sourceforge.net/DTD/sodipodi-0.dtd"
   xmlns:inkscape="http://www.inkscape.org/namespaces/inkscape"
   viewBox="0 -256 1792 1792"
   id="svg2"
   version="1.1"
   inkscape:version="0.48.3.1 r9886"
   width="14px"
   height="14px"
   wikicommons="https://upload.wikimedia.org/wikipedia/commons/7/7f/Forward_font_awesome.svg"
   sodipodi:docname="forward_font_awesome.svg">
  <metadata
     id="metadata12">
    <rdf:RDF>
      <cc:Work
         rdf:about="">
        <dc:format>image/svg+xml</dc:format>
        <dc:type
           rdf:resource="http://purl.org/dc/dcmitype/StillImage" />
      </cc:Work>
    </rdf:RDF>
  </metadata>
  <defs
     id="defs10" />
  <sodipodi:namedview
     pagecolor="#ffffff"
     bordercolor="#666666"
     borderopacity="1"
     objecttolerance="10"
     gridtolerance="10"
     guidetolerance="10"
     inkscape:pageopacity="0"
     inkscape:pageshadow="2"
     inkscape:window-width="640"
     inkscape:window-height="480"
     id="namedview8"
     showgrid="false"
     inkscape:zoom="0.13169643"
     inkscape:cx="896"
     inkscape:cy="896"
     inkscape:window-x="0"
     inkscape:window-y="25"
     inkscape:window-maximized="0"
     inkscape:current-layer="g4" />
  <g
     transform="matrix(1 0 0 -1 0 1536)"
     id="g4">
    <path
       d="m 181.67796,150.76271 q -19,-19 -32,-13 -12.99999,6 -12.99999,32 V 1641.7627 q 0,26 12.99999,32 13,6 32,-13 l 710,-709.99999 q 8,-8 13,-19 v 709.99999 q 0,26 13,32 13,6 32,-13 L 1659.678,950.76271 q 19,-19 19,-45 0,-26 -19,-45 l -710.00004,-710 q -19,-19 -32,-13 -13,6 -13,32 v 710 q -5,-10 -13,-19 z"
       id="path6"
       inkscape:connector-curvature="0"
       style="fill:#000" />
  </g>
</svg>
