<?xml version="1.0" encoding="UTF-8" standalone="no"?>
<svg
   xmlns:dc="http://purl.org/dc/elements/1.1/"
   xmlns:cc="http://creativecommons.org/ns#"
   xmlns:rdf="http://www.w3.org/1999/02/22-rdf-syntax-ns#"
   xmlns:svg="http://www.w3.org/2000/svg"
   xmlns="http://www.w3.org/2000/svg"
   xmlns:sodipodi="http://sodipodi.sourceforge.net/DTD/sodipodi-0.dtd"
   xmlns:inkscape="http://www.inkscape.org/namespaces/inkscape"
   viewBox="0 -256 1850 1850"
   id="svg3025"
   version="1.1"
   inkscape:version="0.48.3.1 r9886"
   width="100%"
   height="100%"
   wikicommons="https://upload.wikimedia.org/wikipedia/commons/3/31/Ol_font_awesome.svg"
   sodipodi:docname="ol_font_awesome.svg">
  <metadata
     id="metadata3035">
    <rdf:RDF>
      <cc:Work
         rdf:about="">
        <dc:format>image/svg+xml</dc:format>
        <dc:type
           rdf:resource="http://purl.org/dc/dcmitype/StillImage" />
      </cc:Work>
    </rdf:RDF>
  </metadata>
  <defs
     id="defs3033" />
  <sodipodi:namedview
     pagecolor="#ffffff"
     bordercolor="#666666"
     borderopacity="1"
     objecttolerance="10"
     gridtolerance="10"
     guidetolerance="10"
     inkscape:pageopacity="0"
     inkscape:pageshadow="2"
     inkscape:window-width="640"
     inkscape:window-height="480"
     id="namedview3031"
     showgrid="false"
     inkscape:zoom="0.13169643"
     inkscape:cx="372.45218"
     inkscape:cy="1038.2361"
     inkscape:window-x="0"
     inkscape:window-y="25"
     inkscape:window-maximized="0"
     inkscape:current-layer="svg3025" />
  <g
     transform="matrix(1,0,0,-1,30.372881,1313.0509)"
     id="g3027">
    <path
       d="m 381,-84 q 0,-80 -54.5,-126 -54.5,-46 -135.5,-46 -106,0 -172,66 l 57,88 q 49,-45 106,-45 29,0 50.5,14.5 21.5,14.5 21.5,42.5 0,64 -105,56 l -26,56 q 8,10 32.5,43.5 24.5,33.5 42.5,54 18,20.5 37,38.5 v 1 q -16,0 -48.5,-1 Q 154,157 138,157 V 104 H 32 V 256 H 365 V 168 L 270,53 q 51,-12 81,-49 30,-37 30,-88 z m 2,627 V 384 H 21 q -6,36 -6,54 0,51 23.5,93 23.5,42 56.5,68 33,26 66,47.5 33,21.5 56.5,43.5 23.5,22 23.5,45 0,25 -14.5,38.5 Q 212,787 187,787 141,787 106,729 L 21,788 Q 45,839 92.5,867.5 140,896 198,896 271,896 321,854.5 371,813 371,742 371,692 337,650.5 303,609 262,586 221,563 186.5,535.5 152,508 151,483 h 127 v 60 H 383 z M 1792,224 V 32 Q 1792,19 1782.5,9.5 1773,0 1760,0 H 544 Q 531,0 521.5,9.5 512,19 512,32 v 192 q 0,14 9,23 9,9 23,9 h 1216 q 13,0 22.5,-9.5 9.5,-9.5 9.5,-22.5 z M 384,1123 v -99 H 49 v 99 h 107 q 0,41 0.5,122 0.5,81 0.5,121 v 12 h -2 q -8,-17 -50,-54 l -71,76 136,127 H 276 V 1123 H 384 z M 1792,736 V 544 q 0,-13 -9.5,-22.5 Q 1773,512 1760,512 H 544 q -13,0 -22.5,9.5 Q 512,531 512,544 v 192 q 0,14 9,23 9,9 23,9 h 1216 q 13,0 22.5,-9.5 9.5,-9.5 9.5,-22.5 z m 0,512 v -192 q 0,-13 -9.5,-22.5 -9.5,-9.5 -22.5,-9.5 H 544 q -13,0 -22.5,9.5 -9.5,9.5 -9.5,22.5 v 192 q 0,13 9.5,22.5 9.5,9.5 22.5,9.5 h 1216 q 13,0 22.5,-9.5 9.5,-9.5 9.5,-22.5 z"
       id="path3029"
       inkscape:connector-curvature="0"
       style="fill:currentColor" />
  </g>
</svg>
