<?xml version="1.0" encoding="UTF-8" standalone="no"?>
<svg
   xmlns:dc="http://purl.org/dc/elements/1.1/"
   xmlns:cc="http://creativecommons.org/ns#"
   xmlns:rdf="http://www.w3.org/1999/02/22-rdf-syntax-ns#"
   xmlns:svg="http://www.w3.org/2000/svg"
   xmlns="http://www.w3.org/2000/svg"
   xmlns:sodipodi="http://sodipodi.sourceforge.net/DTD/sodipodi-0.dtd"
   xmlns:inkscape="http://www.inkscape.org/namespaces/inkscape"
   viewBox="0 -256 1850 1850"
   id="svg2"
   version="1.1"
   inkscape:version="0.48.3.1 r9886"
   width="100%"
   height="100%"
   wikicommons="https://upload.wikimedia.org/wikipedia/commons/1/1b/List_font_awesome.svg"
   sodipodi:docname="list_font_awesome.svg">
  <metadata
     id="metadata12">
    <rdf:RDF>
      <cc:Work
         rdf:about="">
        <dc:format>image/svg+xml</dc:format>
        <dc:type
           rdf:resource="http://purl.org/dc/dcmitype/StillImage" />
      </cc:Work>
    </rdf:RDF>
  </metadata>
  <defs
     id="defs10" />
  <sodipodi:namedview
     pagecolor="#ffffff"
     bordercolor="#666666"
     borderopacity="1"
     objecttolerance="10"
     gridtolerance="10"
     guidetolerance="10"
     inkscape:pageopacity="0"
     inkscape:pageshadow="2"
     inkscape:window-width="640"
     inkscape:window-height="480"
     id="namedview8"
     showgrid="false"
     inkscape:zoom="0.13169643"
     inkscape:cx="896"
     inkscape:cy="896"
     inkscape:window-x="0"
     inkscape:window-y="25"
     inkscape:window-maximized="0"
     inkscape:current-layer="svg2" />
  <g
     transform="matrix(1,0,0,-1,30.372881,1373.7966)"
     id="g4">
    <path
       d="M 256,224 V 32 Q 256,19 246.5,9.5 237,0 224,0 H 32 Q 19,0 9.5,9.5 0,19 0,32 V 224 Q 0,237 9.5,246.5 19,256 32,256 h 192 q 13,0 22.5,-9.5 Q 256,237 256,224 z m 0,384 V 416 q 0,-13 -9.5,-22.5 Q 237,384 224,384 H 32 Q 19,384 9.5,393.5 0,403 0,416 V 608 Q 0,621 9.5,630.5 19,640 32,640 h 192 q 13,0 22.5,-9.5 Q 256,621 256,608 z m 0,384 V 800 q 0,-13 -9.5,-22.5 Q 237,768 224,768 H 32 Q 19,768 9.5,777.5 0,787 0,800 v 192 q 0,13 9.5,22.5 9.5,9.5 22.5,9.5 h 192 q 13,0 22.5,-9.5 Q 256,1005 256,992 z M 1792,224 V 32 Q 1792,19 1782.5,9.5 1773,0 1760,0 H 416 Q 403,0 393.5,9.5 384,19 384,32 v 192 q 0,13 9.5,22.5 9.5,9.5 22.5,9.5 h 1344 q 13,0 22.5,-9.5 9.5,-9.5 9.5,-22.5 z M 256,1376 v -192 q 0,-13 -9.5,-22.5 Q 237,1152 224,1152 H 32 q -13,0 -22.5,9.5 Q 0,1171 0,1184 v 192 q 0,13 9.5,22.5 9.5,9.5 22.5,9.5 h 192 q 13,0 22.5,-9.5 9.5,-9.5 9.5,-22.5 z M 1792,608 V 416 q 0,-13 -9.5,-22.5 Q 1773,384 1760,384 H 416 q -13,0 -22.5,9.5 Q 384,403 384,416 v 192 q 0,13 9.5,22.5 9.5,9.5 22.5,9.5 h 1344 q 13,0 22.5,-9.5 9.5,-9.5 9.5,-22.5 z m 0,384 V 800 q 0,-13 -9.5,-22.5 Q 1773,768 1760,768 H 416 q -13,0 -22.5,9.5 Q 384,787 384,800 v 192 q 0,13 9.5,22.5 9.5,9.5 22.5,9.5 h 1344 q 13,0 22.5,-9.5 9.5,-9.5 9.5,-22.5 z m 0,384 v -192 q 0,-13 -9.5,-22.5 -9.5,-9.5 -22.5,-9.5 H 416 q -13,0 -22.5,9.5 -9.5,9.5 -9.5,22.5 v 192 q 0,13 9.5,22.5 9.5,9.5 22.5,9.5 h 1344 q 13,0 22.5,-9.5 9.5,-9.5 9.5,-22.5 z"
       id="path6"
       inkscape:connector-curvature="0"
       style="fill:currentColor" />
  </g>
</svg>
