<?xml version="1.0" encoding="UTF-8" standalone="no"?>
<svg
   xmlns:dc="http://purl.org/dc/elements/1.1/"
   xmlns:cc="http://creativecommons.org/ns#"
   xmlns:rdf="http://www.w3.org/1999/02/22-rdf-syntax-ns#"
   xmlns:svg="http://www.w3.org/2000/svg"
   xmlns="http://www.w3.org/2000/svg"
   xmlns:sodipodi="http://sodipodi.sourceforge.net/DTD/sodipodi-0.dtd"
   xmlns:inkscape="http://www.inkscape.org/namespaces/inkscape"
   viewBox="0 -256 1792 1792"
   id="svg3025"
   version="1.1"
   inkscape:version="0.48.3.1 r9886"
   width="14px"
   height="14px"
   wikicommons="https://upload.wikimedia.org/wikipedia/commons/c/c5/Signin_font_awesome.svg"
   sodipodi:docname="signin_font_awesome.svg">
  <metadata
     id="metadata3035">
    <rdf:RDF>
      <cc:Work
         rdf:about="">
        <dc:format>image/svg+xml</dc:format>
        <dc:type
           rdf:resource="http://purl.org/dc/dcmitype/StillImage" />
      </cc:Work>
    </rdf:RDF>
  </metadata>
  <defs
     id="defs3033" />
  <sodipodi:namedview
     pagecolor="#ffffff"
     bordercolor="#666666"
     borderopacity="1"
     objecttolerance="10"
     gridtolerance="10"
     guidetolerance="10"
     inkscape:pageopacity="0"
     inkscape:pageshadow="2"
     inkscape:window-width="640"
     inkscape:window-height="480"
     id="namedview3031"
     showgrid="false"
     inkscape:zoom="0.13169643"
     inkscape:cx="896"
     inkscape:cy="896"
     inkscape:window-x="0"
     inkscape:window-y="25"
     inkscape:window-maximized="0"
     inkscape:current-layer="svg3025" />
  <g
     transform="matrix(1,0,0,-1,121.49153,1270.2373)"
     id="g3027">
    <path
       d="m 1184,640 q 0,-26 -19,-45 L 621,51 Q 602,32 576,32 550,32 531,51 512,70 512,96 V 384 H 64 Q 38,384 19,403 0,422 0,448 v 384 q 0,26 19,45 19,19 45,19 h 448 v 288 q 0,26 19,45 19,19 45,19 26,0 45,-19 l 544,-544 q 19,-19 19,-45 z m 352,352 V 288 Q 1536,169 1451.5,84.5 1367,0 1248,0 H 928 Q 915,0 905.5,9.5 896,19 896,32 q 0,4 -1,20 -1,16 -0.5,26.5 0.5,10.5 3,23.5 2.5,13 10,19.5 7.5,6.5 20.5,6.5 h 320 q 66,0 113,47 47,47 47,113 v 704 q 0,66 -47,113 -47,47 -113,47 H 960 949 936 q 0,0 -11.5,1 -11.5,1 -11.5,3 0,2 -8,5.5 -8,3.5 -7,9 1,5.5 -2,13.5 0,4 -1,20 -1,16 -0.5,26.5 0.5,10.5 3,23.5 2.5,13 10,19.5 7.5,6.5 20.5,6.5 h 320 q 119,0 203.5,-84.5 Q 1536,1111 1536,992 z"
       id="path3029"
       inkscape:connector-curvature="0"
       style="fill:#EEE" />
  </g>
</svg>
