<?xml version="1.0" encoding="UTF-8" standalone="no"?>
<svg
   xmlns:dc="http://purl.org/dc/elements/1.1/"
   xmlns:cc="http://creativecommons.org/ns#"
   xmlns:rdf="http://www.w3.org/1999/02/22-rdf-syntax-ns#"
   xmlns:svg="http://www.w3.org/2000/svg"
   xmlns="http://www.w3.org/2000/svg"
   xmlns:sodipodi="http://sodipodi.sourceforge.net/DTD/sodipodi-0.dtd"
   xmlns:inkscape="http://www.inkscape.org/namespaces/inkscape"
   viewBox="0 -256 1792 1792"
   id="svg3643"
   version="1.1"
   inkscape:version="0.48.3.1 r9886"
   width="14px"
   height="14px"
   wikicommons="https://upload.wikimedia.org/wikipedia/commons/1/1c/Truck_font_awesome.svg"
   sodipodi:docname="truck_font_awesome.svg">
  <metadata
     id="metadata3653">
    <rdf:RDF>
      <cc:Work
         rdf:about="">
        <dc:format>image/svg+xml</dc:format>
        <dc:type
           rdf:resource="http://purl.org/dc/dcmitype/StillImage" />
      </cc:Work>
    </rdf:RDF>
  </metadata>
  <defs
     id="defs3651" />
  <sodipodi:namedview
     pagecolor="#ffffff"
     bordercolor="#666666"
     borderopacity="1"
     objecttolerance="10"
     gridtolerance="10"
     guidetolerance="10"
     inkscape:pageopacity="0"
     inkscape:pageshadow="2"
     inkscape:window-width="640"
     inkscape:window-height="480"
     id="namedview3649"
     showgrid="false"
     inkscape:zoom="0.13169643"
     inkscape:cx="896"
     inkscape:cy="896"
     inkscape:window-x="0"
     inkscape:window-y="25"
     inkscape:window-maximized="0"
     inkscape:current-layer="svg3643" />
  <g
     transform="matrix(1,0,0,-1,-30.372881,1224.678)"
     id="g3645">
    <path
       d="m 640,128 q 0,52 -38,90 -38,38 -90,38 -52,0 -90,-38 -38,-38 -38,-90 0,-52 38,-90 38,-38 90,-38 52,0 90,38 38,38 38,90 z M 256,640 H 640 V 896 H 482 q -13,0 -22,-9 L 265,692 q -9,-9 -9,-22 V 640 z M 1536,128 q 0,52 -38,90 -38,38 -90,38 -52,0 -90,-38 -38,-38 -38,-90 0,-52 38,-90 38,-38 90,-38 52,0 90,38 38,38 38,90 z m 256,1088 V 192 q 0,-15 -4,-26.5 -4,-11.5 -13.5,-18.5 -9.5,-7 -16.5,-11.5 -7,-4.5 -23.5,-6 -16.5,-1.5 -22.5,-2 -6,-0.5 -25.5,0 -19.5,0.5 -22.5,0.5 0,-106 -75,-181 -75,-75 -181,-75 -106,0 -181,75 -75,75 -75,181 H 768 q 0,-106 -75,-181 -75,-75 -181,-75 -106,0 -181,75 -75,75 -75,181 h -64 q -3,0 -22.5,-0.5 -19.5,-0.5 -25.5,0 -6,0.5 -22.5,2 Q 105,131 98,135.5 91,140 81.5,147 72,154 68,165.5 64,177 64,192 q 0,26 19,45 19,19 45,19 v 320 q 0,8 -0.5,35 -0.5,27 0,38 0.5,11 2.5,34.5 2,23.5 6.5,37 4.5,13.5 14,30.5 9.5,17 22.5,30 l 198,198 q 19,19 50.5,32 31.5,13 58.5,13 h 160 v 192 q 0,26 19,45 19,19 45,19 h 1024 q 26,0 45,-19 19,-19 19,-45 z"
       id="path3647"
       inkscape:connector-curvature="0"
       style="fill:#EEE" />
  </g>
</svg>
